<svg xmlns="http://www.w3.org/2000/svg" width="22.384" height="28.319" viewBox="0 0 22.384 28.319"><defs><style>.a,.b{fill:#2acb55;}.a{opacity:0.29;}</style></defs><path class="a" d="M17.584,14.88H3.82V13.527H15.278V9.469H3.82V5.411H0V3A3,3,0,0,1,3,0H7.7a3.245,3.245,0,0,0,3.119,2.705A3.245,3.245,0,0,0,13.94,0h4.7a3,3,0,0,1,3,3V5.411H17.584v9.468Z" transform="translate(0 13.44)"/><g transform="translate(0.193)"><g transform="translate(0)"><path class="b" d="M65.744,12.483H61.87V10.633a4.623,4.623,0,0,0,1.849-3.7V2.774A2.774,2.774,0,0,0,60.945,0H54.01a.462.462,0,0,0-.462.462,2.774,2.774,0,0,0,1.3,2.349,4.6,4.6,0,0,0-.379,1.812V6.935a4.623,4.623,0,0,0,1.849,3.7v1.849H52.448A4.448,4.448,0,0,0,48,16.93V24.5a3.236,3.236,0,0,0,2.774,3.2v.037H69.729a.462.462,0,0,0,.462-.462V16.93A4.448,4.448,0,0,0,65.744,12.483ZM54.533.925h6.412a1.849,1.849,0,0,1,1.849,1.849V4.267L61.81,2.543a.462.462,0,0,0-.4-.231H56.322A1.849,1.849,0,0,1,54.533.925Zm.865,6.01V4.623A3.7,3.7,0,0,1,55.7,3.162a2.738,2.738,0,0,0,.62.074h4.817l1.655,2.9v.8a3.7,3.7,0,1,1-7.4,0Zm1.387,6.473a.462.462,0,0,0,.462-.462V11.17a4.6,4.6,0,0,0,3.7,0v1.775a.462.462,0,0,0,.462.462h.777l-.277,1.012a2.774,2.774,0,0,1-2.349,1.3h-.925a2.774,2.774,0,0,1-2.376-1.345l-.264-.966Zm4.623,2.732-1.327,4.845a1.817,1.817,0,0,0-.855.841l-.416.828h-.43l-1.692-6.57a3.634,3.634,0,0,0,1.946.559h.925A3.7,3.7,0,0,0,61.407,16.14Zm-12.483.791a3.528,3.528,0,0,1,3.523-3.523h.277l2.39,9.246H52.623v-3.7a.462.462,0,0,0-.462-.462H48.925Zm4.623,9.884H51.236A2.312,2.312,0,0,1,48.925,24.5V19.418H51.7v3.7a.462.462,0,0,0,.462.462h1.387Zm.925,0V23.579h.878l.837,3.236Zm2.672,0L53.682,13.407h1.355L58.5,26.815Zm4.725,0H59.456l-.823-3.236H61.87Zm-.925-4.161h-1.1l.208-.411a.925.925,0,0,1,.823-.513h1.387A1.387,1.387,0,0,1,60.945,22.654Zm.148-1.849,2.053-7.4H64.5l-2.053,7.4Zm2.626,5.548a.462.462,0,0,1-.462.462h-.462V23.579h.462a.462.462,0,0,1,.462.462Zm5.548.462H66.493v-7.4h2.774Zm0-9.884v1.563H66.031a.462.462,0,0,0-.462.462v7.86H64.56a1.388,1.388,0,0,0,.083-.462V24.041a1.387,1.387,0,0,0-1.387-1.387h-.462a2.279,2.279,0,0,0,.462-1.285l2.2-7.961h.287a3.528,3.528,0,0,1,3.523,3.523Z" transform="translate(-48 0)"/><path class="b" d="M216.284,90.024a.462.462,0,0,0,.08.006h1.387v-.925h-.841l.379-2.238-.925-.148-.462,2.774A.462.462,0,0,0,216.284,90.024Z" transform="translate(-206.193 -81.708)"/></g></g></svg>