<svg version="1.2" baseProfile="tiny-ps" xmlns="http://www.w3.org/2000/svg" viewBox="0 0 30 23" width="30" height="23">
	<title>bike-icon-svg</title>
	<style>
		tspan { white-space:pre }
		.shp0 { mix-blend-mode: multiply;fill: #2b3f55 } 
		.shp1 { opacity: 0.412;mix-blend-mode: multiply;fill: #2b3f55 } 
	</style>
	<g id="Layer">
		<path id="Layer" fill-rule="evenodd" class="shp0" d="M26.43 14.02C27.93 14.32 29.15 15.45 29.59 16.95C30.04 18.45 29.64 20.08 28.55 21.19C27.47 22.3 25.87 22.7 24.41 22.24C22.94 21.79 21.84 20.54 21.54 19L10.49 19C10.3 19.98 9.78 20.86 9.03 21.48C8.27 22.11 7.32 22.44 6.35 22.42C5.38 22.41 4.44 22.04 3.7 21.39C2.97 20.74 2.48 19.85 2.32 18.87C2.1 18.79 1.9 18.68 1.72 18.53C1.54 18.39 1.38 18.22 1.25 18.03C1.12 17.84 1.02 17.63 0.95 17.4C0.88 17.18 0.84 16.95 0.84 16.71L0.84 14.03C0.84 13.85 0.85 13.67 0.89 13.49C0.93 13.31 0.98 13.14 1.06 12.98C1.14 12.81 1.23 12.66 1.34 12.52C1.45 12.38 1.58 12.25 1.72 12.14C1.78 12.09 1.85 12.05 1.91 12C1.97 11.95 2.03 11.9 2.1 11.86C2.16 11.81 2.22 11.77 2.29 11.72C2.35 11.68 2.42 11.64 2.48 11.6L1.65 11.6C1.43 11.6 1.22 11.55 1.02 11.47C0.82 11.38 0.64 11.26 0.48 11.1C0.33 10.95 0.21 10.76 0.13 10.56C0.04 10.35 0 10.13 0 9.91L0 9.32C0 9.1 0.04 8.88 0.13 8.67C0.21 8.47 0.33 8.28 0.48 8.13C0.64 7.97 0.82 7.85 1.02 7.76C1.22 7.68 1.43 7.63 1.65 7.63L10.87 7.63C11.09 7.63 11.31 7.68 11.51 7.76C11.71 7.85 11.89 7.97 12.04 8.13C12.2 8.28 12.32 8.47 12.4 8.67C12.48 8.88 12.53 9.1 12.53 9.32L12.53 9.91C12.53 10.04 12.51 10.16 12.49 10.28C12.46 10.4 12.42 10.51 12.37 10.62C12.32 10.73 12.26 10.84 12.19 10.94C12.12 11.03 12.03 11.12 11.94 11.2C12.03 11.3 12.12 11.42 12.19 11.54C12.26 11.65 12.33 11.78 12.38 11.91C12.43 12.04 12.46 12.18 12.49 12.32C12.51 12.45 12.53 12.59 12.53 12.73L12.53 15.63L17.98 15.63C17.99 15.62 18 15.62 18.01 15.62C18.02 15.62 18.03 15.62 18.04 15.62C18.05 15.62 18.06 15.61 18.07 15.61C18.08 15.61 18.09 15.61 18.1 15.61C18.32 15.61 18.54 15.57 18.74 15.48C18.95 15.4 19.13 15.27 19.29 15.11C19.44 14.95 19.57 14.77 19.65 14.56C19.73 14.35 19.78 14.13 19.78 13.9L19.78 2.48C19.76 2.41 19.75 2.34 19.72 2.27C19.7 2.2 19.67 2.14 19.63 2.07C19.6 2.01 19.56 1.95 19.51 1.9C19.47 1.84 19.42 1.79 19.37 1.74C19 1.36 18.72 1.08 18.62 0.97C18.52 0.87 18.46 0.72 18.46 0.58C18.46 0.43 18.52 0.29 18.62 0.18C18.72 0.08 18.86 0.02 19 0.01C19.14 0.01 19.28 0.06 19.39 0.16C19.41 0.17 19.79 0.55 20.16 0.94C20.27 1.04 20.36 1.15 20.44 1.27C20.53 1.39 20.6 1.51 20.66 1.64C20.73 1.77 20.78 1.91 20.81 2.05C20.85 2.19 20.87 2.33 20.88 2.48L20.88 2.56C21.12 2.56 21.34 2.61 21.55 2.7C21.77 2.8 21.96 2.93 22.11 3.1C22.27 3.27 22.4 3.48 22.48 3.7C22.56 3.92 22.59 4.15 22.58 4.39L22.58 4.65C22.66 4.59 22.74 4.53 22.82 4.48C22.9 4.43 22.99 4.39 23.08 4.36C23.17 4.32 23.27 4.3 23.36 4.28C23.46 4.26 23.55 4.25 23.65 4.25L24.74 4.25C24.81 4.25 24.89 4.27 24.95 4.3C25.02 4.33 25.08 4.37 25.13 4.42C25.19 4.47 25.23 4.54 25.25 4.6C25.28 4.67 25.3 4.75 25.3 4.82L25.3 7.09C25.3 7.16 25.28 7.24 25.25 7.31C25.23 7.37 25.19 7.44 25.13 7.49C25.08 7.54 25.02 7.58 24.95 7.61C24.89 7.64 24.81 7.66 24.74 7.66L23.65 7.66C23.55 7.66 23.46 7.65 23.36 7.63C23.27 7.61 23.17 7.59 23.08 7.55C22.99 7.52 22.9 7.48 22.82 7.43C22.74 7.38 22.66 7.32 22.58 7.26L22.58 7.96L22.88 8.26L24.28 9.69C24.38 9.8 24.49 9.91 24.59 10.01C25.45 10.88 26.43 11.84 26.43 13.27L26.43 14.02ZM1.95 16.71C1.95 16.86 1.98 17.01 2.04 17.15C2.09 17.29 2.17 17.41 2.28 17.52C2.38 17.62 2.5 17.71 2.64 17.77C2.77 17.83 2.92 17.86 3.06 17.86L21.48 17.86C21.52 17.36 21.64 16.87 21.85 16.41C22.05 15.95 22.34 15.53 22.69 15.18C23.04 14.82 23.44 14.53 23.89 14.32C24.34 14.11 24.82 13.98 25.32 13.94L25.32 13.27C25.32 12.32 24.59 11.6 23.82 10.83C23.71 10.72 23.6 10.61 23.49 10.5L22.09 9.07L21.64 8.6C21.61 8.58 21.59 8.55 21.57 8.52C21.55 8.49 21.53 8.45 21.52 8.42C21.5 8.38 21.49 8.35 21.48 8.31C21.48 8.28 21.47 8.24 21.47 8.2L21.47 4.39C21.47 4.16 21.47 3.82 20.88 3.7L20.88 13.9C20.88 14.27 20.82 14.62 20.68 14.96C20.55 15.3 20.36 15.61 20.12 15.87C19.87 16.13 19.58 16.34 19.26 16.49C18.94 16.64 18.59 16.73 18.23 16.75C18.22 16.75 18.21 16.75 18.2 16.76C18.19 16.76 18.18 16.76 18.17 16.76C18.16 16.76 18.15 16.76 18.13 16.76C18.12 16.76 18.11 16.77 18.1 16.77L12.18 16.77L11.94 16.75C11.87 16.75 11.8 16.73 11.74 16.7C11.67 16.67 11.62 16.63 11.57 16.58C11.52 16.52 11.48 16.46 11.46 16.39C11.43 16.33 11.42 16.26 11.42 16.18L11.42 12.73C11.42 12.59 11.39 12.44 11.33 12.3C11.28 12.16 11.19 12.04 11.09 11.93C10.99 11.83 10.86 11.74 10.73 11.68C10.59 11.63 10.45 11.6 10.3 11.6L6.41 11.6C6.05 11.6 5.69 11.63 5.34 11.69C4.98 11.75 4.64 11.84 4.3 11.96C3.96 12.08 3.63 12.24 3.31 12.41C3 12.59 2.7 12.8 2.42 13.03C2.34 13.09 2.27 13.15 2.21 13.23C2.15 13.3 2.1 13.38 2.06 13.47C2.02 13.56 1.99 13.65 1.97 13.74C1.95 13.84 1.95 13.93 1.95 14.03L1.95 16.71ZM10.88 10.46C10.95 10.46 11.02 10.45 11.08 10.42C11.15 10.39 11.2 10.35 11.25 10.3C11.3 10.25 11.34 10.19 11.37 10.12C11.4 10.06 11.41 9.99 11.41 9.91L11.41 9.32C11.41 9.25 11.4 9.18 11.37 9.11C11.34 9.04 11.3 8.98 11.25 8.93C11.2 8.88 11.15 8.84 11.08 8.81C11.02 8.79 10.95 8.77 10.88 8.77L1.65 8.77C1.58 8.77 1.51 8.79 1.44 8.81C1.38 8.84 1.32 8.88 1.27 8.93C1.22 8.98 1.18 9.04 1.15 9.11C1.13 9.18 1.11 9.25 1.11 9.32L1.11 9.91C1.11 9.99 1.13 10.06 1.15 10.12C1.18 10.19 1.22 10.25 1.27 10.3C1.32 10.35 1.38 10.39 1.44 10.42C1.51 10.45 1.58 10.46 1.65 10.46L10.88 10.46ZM23.65 5.39C23.51 5.39 23.37 5.45 23.26 5.55C23.16 5.66 23.1 5.81 23.1 5.96C23.1 6.11 23.16 6.25 23.26 6.36C23.37 6.46 23.51 6.52 23.65 6.52L24.19 6.52L24.19 5.39L23.65 5.39L23.65 5.39ZM6.41 21.29C6.74 21.29 7.07 21.23 7.39 21.12C7.7 21.01 7.99 20.85 8.26 20.65C8.52 20.44 8.75 20.2 8.93 19.92C9.12 19.64 9.26 19.33 9.35 19L8.77 19C8.6 19.5 8.29 19.94 7.86 20.25C7.44 20.56 6.93 20.73 6.41 20.73C5.89 20.73 5.38 20.56 4.96 20.25C4.54 19.94 4.22 19.5 4.05 19L3.48 19C3.57 19.33 3.71 19.64 3.89 19.92C4.08 20.2 4.3 20.44 4.57 20.65C4.83 20.86 5.12 21.02 5.44 21.12C5.75 21.23 6.08 21.29 6.41 21.29L6.41 21.29ZM5.29 19C5.41 19.18 5.58 19.33 5.78 19.44C5.97 19.54 6.19 19.6 6.41 19.6C6.63 19.6 6.85 19.54 7.04 19.44C7.24 19.33 7.41 19.18 7.54 19L5.29 19ZM25.62 21.29C26.58 21.29 27.49 20.82 28.06 20.02C28.64 19.23 28.81 18.21 28.52 17.26C28.24 16.32 27.54 15.57 26.62 15.24C25.71 14.92 24.71 15.05 23.91 15.61L24.3 16.01C25.27 15.4 26.51 15.53 27.34 16.33C28.16 17.13 28.35 18.4 27.8 19.42C27.24 20.43 26.09 20.94 24.99 20.65C23.89 20.35 23.12 19.34 23.12 18.18C23.12 18.03 23.18 17.88 23.28 17.78C23.39 17.67 23.53 17.61 23.68 17.61C23.82 17.61 23.97 17.67 24.07 17.78C24.17 17.88 24.23 18.03 24.23 18.18C24.23 18.8 24.63 19.35 25.21 19.53C25.78 19.71 26.41 19.49 26.76 18.98C27.1 18.47 27.08 17.79 26.7 17.3C26.33 16.82 25.68 16.64 25.12 16.86L26.01 17.78C26.11 17.89 26.17 18.03 26.17 18.18C26.16 18.33 26.1 18.47 26 18.58C25.9 18.68 25.76 18.74 25.61 18.74C25.47 18.74 25.33 18.68 25.22 18.58L23.12 16.41C22.8 16.88 22.62 17.42 22.58 17.99C22.55 18.55 22.66 19.12 22.92 19.62C23.18 20.13 23.57 20.55 24.04 20.84C24.52 21.13 25.06 21.29 25.62 21.29L25.62 21.29Z" />
		<path id="Layer" class="shp1" d="M11.93 12.38L12.14 16.23L20.24 15.31L20.24 18.47C20.24 18.47 5.49 19.39 2.84 18.12C0.19 16.85 1.34 13.39 1.34 13.39C1.34 13.39 2.97 11.5 3.95 11.33C4.94 11.15 11.37 10.98 11.37 10.98L11.93 12.38Z" />
		<path id="Layer" class="shp1" d="M20.3 3.13L21.53 3.13L21.83 8.03L25.82 12.07C25.79 12.5 25.71 12.92 25.57 13.32C25.43 13.72 25.23 14.1 24.99 14.44C24.74 14.78 24.45 15.09 24.12 15.35C23.79 15.61 23.42 15.82 23.03 15.97C22.26 16.3 23.03 17.12 22.43 17.72C22.27 17.86 22.1 18 21.93 18.13C21.76 18.27 21.59 18.39 21.41 18.51C21.23 18.63 21.05 18.75 20.86 18.86C20.68 18.96 20.49 19.06 20.3 19.16L20.3 3.13Z" />
	</g>
</svg>