<svg xmlns="http://www.w3.org/2000/svg" width="37.45" height="15.147" viewBox="0 0 37.45 15.147"><defs><style>.a,.b{fill:#2acb55;}.b{opacity:0.51;}</style></defs><path class="a" d="M-393.436,315.224v.739h-4.618l1.09-1.09a19.881,19.881,0,0,0-7.355-1.414h-.35v2.5h-1.245v-2.478a19.913,19.913,0,0,0-8.665,2.413l-.117.065h-2.62l.545-.3,1.6-.869a21.229,21.229,0,0,1,10.131-2.581h.739a21.154,21.154,0,0,1,8.691,1.868A21.674,21.674,0,0,1-393.436,315.224Z" transform="translate(425.892 -312.214)"/><path class="a" d="M-412.858,317.507h2.5v1.248h-2.5Z" transform="translate(427.217 -310.641)"/><path class="a" d="M-387.009,315.963l-4.242-.61c-.078-.039-.143-.091-.22-.13a21.685,21.685,0,0,0-2.179-1.142,21.154,21.154,0,0,0-8.691-1.868h-.739a21.229,21.229,0,0,0-10.131,2.581l-1.6.869-.545.3a14.775,14.775,0,0,0-7.135,1.933,2.862,2.862,0,0,0-1.44,2.465v3.71a.623.623,0,0,0,.623.623h2.1a3.731,3.731,0,0,0,4.761,2.283,3.651,3.651,0,0,0,2.089-1.842,2.683,2.683,0,0,0,.195-.441h16.669a3.731,3.731,0,0,0,4.761,2.283,3.693,3.693,0,0,0,2.283-2.283h.221a.628.628,0,0,0,.233-.039l2.024-.817a2.353,2.353,0,0,0,1.492-2.205v-5.046A.618.618,0,0,0-387.009,315.963Zm-15.7-2.5h.35A19.882,19.882,0,0,1-395,314.873l-1.09,1.09H-402.7Zm-12.531,10.481a2.479,2.479,0,0,1-2.945,1.946,2.492,2.492,0,0,1-1.946-2.945A2.5,2.5,0,0,1-417.182,321a2.51,2.51,0,0,1,2,2.452A2.052,2.052,0,0,1-415.236,323.941Zm11.286-.493h-9.988a3.731,3.731,0,0,0-1.4-2.919,3.725,3.725,0,0,0-2.348-.83,3.748,3.748,0,0,0-3.736,3.749h-1.245V320.36a1.58,1.58,0,0,1,.791-1.375,13.458,13.458,0,0,1,6.694-1.777h11.234Zm-8.782-7.485.117-.065a19.913,19.913,0,0,1,8.665-2.413v2.478Zm21.209,7.978a2.479,2.479,0,0,1-2.945,1.946,2.492,2.492,0,0,1-1.946-2.945A2.5,2.5,0,0,1-393.469,321a2.51,2.51,0,0,1,2,2.452A2.052,2.052,0,0,1-391.523,323.941Zm3.8-6.11h-1.868v1.245h1.868v2.555a1.128,1.128,0,0,1-.713,1.051l-1.79.714v-.169a.849.849,0,0,1-.013-.182,1,1,0,0,1-.026-.195c-.013-.065-.026-.117-.039-.182s-.026-.117-.039-.182a.836.836,0,0,1-.052-.169c-.026-.065-.039-.117-.065-.169s-.039-.117-.065-.182a.865.865,0,0,0-.078-.156c-.026-.052-.052-.117-.078-.169s-.065-.091-.091-.143-.065-.1-.091-.156a.983.983,0,0,1-.1-.143l-.117-.156-.117-.117c-.039-.039-.078-.091-.13-.143a1.171,1.171,0,0,0-.13-.117,1.152,1.152,0,0,0-.13-.117c-.052-.039-.091-.078-.143-.117a.991.991,0,0,1-.143-.1c-.052-.026-.1-.065-.169-.091a.864.864,0,0,0-.143-.091c-.052-.026-.117-.052-.169-.078s-.1-.052-.156-.078a.861.861,0,0,0-.195-.065.793.793,0,0,0-.156-.065,1.207,1.207,0,0,0-.208-.052c-.052-.013-.091-.026-.143-.039l-.234-.039c-.052,0-.091-.013-.143-.013a3.4,3.4,0,0,0-.376-.026,3.759,3.759,0,0,0-3.749,3.749H-402.7v-6.24h6.862a.618.618,0,0,0,.441-.182l1.621-1.622c.363.169.726.363,1.077.558.311.156.61.337.908.519a.519.519,0,0,0,.233.091l3.84.545Z" transform="translate(423.927 -312.214)"/><circle class="b" cx="3.916" cy="3.916" r="3.916" transform="translate(2.331 7.316)"/><circle class="b" cx="3.916" cy="3.916" r="3.916" transform="translate(26.044 7.316)"/></svg>