<svg xmlns="http://www.w3.org/2000/svg" width="30.987" height="18.422" viewBox="0 0 30.987 18.422">
  <defs>
    <style>.a,.b{fill:#2b3f55;}.b{opacity:0.37;}</style>
  </defs>
  <g transform="translate(0 0)">
    <g transform="translate(0 0)">
      <path class="a"
        d="M30.68,112.613l-1.788-1.038-1.021-4.364a2.545,2.545,0,0,0-2.488-1.973H20.245v-.815a.617.617,0,0,0-.617-.617H.617a.617.617,0,0,0-.617.617v14.713a.617.617,0,0,0,.617.617H2.6a3.091,3.091,0,0,0,6.058,0h12.5a3.091,3.091,0,0,0,6.058,0H30.37a.617.617,0,0,0,.617-.617v-5.99A.617.617,0,0,0,30.68,112.613ZM5.63,120.993a1.857,1.857,0,1,1,1.857-1.857A1.859,1.859,0,0,1,5.63,120.993Zm13.38-4.688H13.443a.617.617,0,0,0,0,1.235H19.01v.979H8.659a3.091,3.091,0,0,0-6.058,0H1.235v-3.192H19.01v.979Zm0-10.45v8.237H1.235v-9.052H19.01Zm4.815.617h1.557a1.315,1.315,0,0,1,1.286,1.02l.9,3.866H23.826v-4.885Zm.359,14.521a1.859,1.859,0,0,1-1.852-1.733.623.623,0,0,0,0-.247,1.856,1.856,0,1,1,1.852,1.98Zm5.568-5.4H28.578v-.653h1.174Zm0-1.888H27.961a.617.617,0,0,0-.617.617v1.888a.617.617,0,0,0,.617.617h1.792v1.7H27.214a3.091,3.091,0,0,0-6.058,0h-.911V106.473h2.346v5.5a.617.617,0,0,0,.617.617h4.977l1.567.91v.2Z"
        transform="translate(0 -103.806)" />
    </g>
    <g transform="translate(10.221 12.5)">
      <g transform="translate(0 0)">
        <path class="a"
          d="M170.026,310.344h-.521a.617.617,0,0,0,0,1.235h.521a.617.617,0,0,0,0-1.235Z"
          transform="translate(-168.888 -310.344)" />
      </g>
    </g>
  </g>
  <rect class="b" width="18.938" height="10.822" transform="translate(0.631 0.849)" />
</svg>