<svg id="travel" xmlns="http://www.w3.org/2000/svg" width="24.979" height="25" viewBox="0 0 24.979 25">
  <g id="plane_1_" data-name="plane (1)" transform="translate(0 0)">
    <g id="Group_3801" data-name="Group 3801" transform="translate(9.992 0)">
      <g id="Group_3800" data-name="Group 3800">
        <path id="Path_22845" data-name="Path 22845" d="M208.967,1.129a1.9,1.9,0,0,0-1.2-1.073,1.767,1.767,0,0,0-2.023.921,8.727,8.727,0,0,0-.91,3.916V17.922a.417.417,0,0,0,.008.079l1.121,5.808A1.387,1.387,0,0,0,207.333,25h0a1.381,1.381,0,0,0,1.365-1.17L209.825,18a.386.386,0,0,0,.008-.079V4.892A8.722,8.722,0,0,0,208.967,1.129ZM209,17.881l-1.12,5.812a.551.551,0,0,1-1.094-.021l-1.117-5.79V4.891a7.9,7.9,0,0,1,.823-3.543A.929.929,0,0,1,207.54.857a1.073,1.073,0,0,1,.669.617A7.918,7.918,0,0,1,209,4.893Z" transform="translate(-204.836 0)" fill="#2b3f55"/>
      </g>
    </g>
    <g id="Group_3803" data-name="Group 3803" transform="translate(0 9.178)">
      <g id="Group_3802" data-name="Group 3802">
        <path id="Path_22846" data-name="Path 22846" d="M10.807,188.019a.416.416,0,0,0-.411-.008L.4,193.423a.416.416,0,0,0-.218.366v2.5a.417.417,0,0,0,.562.39l9.992-3.747a.417.417,0,0,0,.27-.39v-4.164A.417.417,0,0,0,10.807,188.019Zm-.629,4.233-9.159,3.435v-1.649l9.159-4.961Z" transform="translate(-0.186 -187.96)" fill="#2b3f55"/>
      </g>
    </g>
    <g id="Group_3805" data-name="Group 3805" transform="translate(14.155 9.178)">
      <g id="Group_3804" data-name="Group 3804" transform="translate(0)">
        <path id="Path_22847" data-name="Path 22847" d="M300.717,193.427l-9.992-5.413a.416.416,0,0,0-.614.366v4.164a.416.416,0,0,0,.27.39l9.992,3.747a.428.428,0,0,0,.147.026.411.411,0,0,0,.236-.074.416.416,0,0,0,.179-.342v-2.5A.417.417,0,0,0,300.717,193.427Zm-.615,2.263-9.159-3.435v-3.176l9.159,4.962Z" transform="translate(-290.111 -187.964)" fill="#2b3f55"/>
      </g>
    </g>
    <g id="Group_3807" data-name="Group 3807" transform="translate(5.412 9.595)">
      <g id="Group_3806" data-name="Group 3806">
        <path id="Path_22848" data-name="Path 22848" d="M112.288,196.5a1.251,1.251,0,0,0-1.249,1.249V199h.833v-1.249a.416.416,0,1,1,.833,0v.416h.833v-.416A1.25,1.25,0,0,0,112.288,196.5Z" transform="translate(-111.039 -196.497)" fill="#2b3f55"/>
      </g>
    </g>
    <g id="Group_3809" data-name="Group 3809" transform="translate(1.665 11.676)">
      <g id="Group_3808" data-name="Group 3808">
        <path id="Path_22849" data-name="Path 22849" d="M35.543,239.124a1.251,1.251,0,0,0-1.249,1.249v1.249h.833v-1.249a.416.416,0,0,1,.833,0h.833A1.25,1.25,0,0,0,35.543,239.124Z" transform="translate(-34.294 -239.124)" fill="#2b3f55"/>
      </g>
    </g>
    <g id="Group_3811" data-name="Group 3811" transform="translate(17.069 9.595)">
      <g id="Group_3810" data-name="Group 3810">
        <path id="Path_22850" data-name="Path 22850" d="M351.05,196.5a1.251,1.251,0,0,0-1.249,1.249v.416h.833v-.416a.416.416,0,1,1,.833,0V199h.833v-1.249A1.25,1.25,0,0,0,351.05,196.5Z" transform="translate(-349.801 -196.497)" fill="#2b3f55"/>
      </g>
    </g>
    <g id="Group_3813" data-name="Group 3813" transform="translate(20.816 11.676)">
      <g id="Group_3812" data-name="Group 3812">
        <path id="Path_22851" data-name="Path 22851" d="M427.795,239.124a1.251,1.251,0,0,0-1.249,1.249h.833a.416.416,0,0,1,.833,0v1.249h.833v-1.249A1.251,1.251,0,0,0,427.795,239.124Z" transform="translate(-426.546 -239.124)" fill="#2b3f55"/>
      </g>
    </g>
    <g id="Group_3815" data-name="Group 3815" transform="translate(6.245 20.063)">
      <g id="Group_3814" data-name="Group 3814">
        <path id="Path_22852" data-name="Path 22852" d="M133.437,414.165l-4.511.752v-.938l3.961-2.377-.428-.714-4.163,2.5a.415.415,0,0,0-.2.357v1.666a.417.417,0,0,0,.416.416.467.467,0,0,0,.068-.005l5-.833Z" transform="translate(-128.094 -410.888)" fill="#2b3f55"/>
      </g>
    </g>
    <g id="Group_3817" data-name="Group 3817" transform="translate(13.254 20.063)">
      <g id="Group_3816" data-name="Group 3816">
        <path id="Path_22853" data-name="Path 22853" d="M276.937,413.386l-4.163-2.5-.428.714,3.961,2.377v.938l-4.511-.752-.137.821,5,.833a.419.419,0,0,0,.068.006.417.417,0,0,0,.416-.416v-1.665A.416.416,0,0,0,276.937,413.386Z" transform="translate(-271.659 -410.888)" fill="#2b3f55"/>
      </g>
    </g>
    <g id="Group_3819" data-name="Group 3819" transform="translate(11.263 2.516)">
      <g id="Group_3818" data-name="Group 3818">
        <path id="Path_22854" data-name="Path 22854" d="M233.034,52.2a1.017,1.017,0,0,0-.948-.68.982.982,0,0,0-.94.7l-.283.833.789.268.289-.85a.16.16,0,0,1,.151-.117.162.162,0,0,1,.154.11l.283.854.79-.262Z" transform="translate(-230.863 -51.525)" fill="#2b3f55"/>
      </g>
    </g>
  </g>
  <path id="Path_22855" data-name="Path 22855" d="M0,1.027,1.673-.154l1.87,1.181.286,16.228-.53,4.04L2.041,23.76l-1.22-.666L0,19.311Z" transform="translate(10.627 0.665)" fill="#2b3f55" opacity="0.37"/>
</svg>
